<?xml version="1.0" encoding="utf-8"?>
<!-- Generator: Adobe Illustrator 23.0.0, SVG Export Plug-In . SVG Version: 6.00 Build 0)  -->
<svg version="1.1" id="Layer_1" xmlns="http://www.w3.org/2000/svg" xmlns:xlink="http://www.w3.org/1999/xlink" x="0px" y="0px"
	 viewBox="0 0 500 500" style="enable-background:new 0 0 500 500;" xml:space="preserve">
<style type="text/css">
	.st0{fill:#36AD47;}
</style>
<g>
	<g>
		<path class="st0" d="M117.53,171c12.93-48.01,39.57-84.59,81.56-109.35c33.45-19.73,69.8-27.17,108.32-22.75
			c79.72,9.13,141.71,70.93,152.95,148.02c6.47,44.36-2.65,85.67-27.61,123c-24.84,37.15-59.56,60.79-103.92,72.59
			c3.08,2.76,5.63,4.75,7.84,7.07c10.5,11.03,10.26,26.19-0.06,37.34c-14.4,15.56-30.72,28.07-51.85,32.74
			c-33.8,7.48-63.46-0.72-88.11-25.07c-35.23-34.81-70.1-69.99-105.13-105.02c-8.44-8.44-16.9-16.88-25.33-25.33
			c-37.92-37.99-38.09-95.24-0.4-133.47c2.48-2.52,4.96-5.05,7.52-7.49c10.38-9.89,26.32-10.02,36.82-0.23
			C112.58,165.35,114.73,167.97,117.53,171z M448.14,206.62c-0.56-36.15-14.38-73.37-43.66-103.79
			c-41.53-43.15-92.43-58.64-151.15-47.29c-60.52,11.69-111.6,63.51-122.83,123.94c-0.3,1.63,0.41,4.05,1.55,5.24
			c7.23,7.57,14.8,14.81,22.09,22.32c10.76,11.06,10.72,26.56,0.03,37.64c-3.38,3.5-6.95,6.82-10.29,10.36
			c-7.3,7.73-7.36,18.23,0.13,25.76c24.95,25.09,49.97,50.12,75.07,75.07c7.69,7.65,18.21,7.5,26.09-0.04
			c3.2-3.06,6.25-6.26,9.4-9.36c11.72-11.56,27.19-11.62,38.9-0.1c6.83,6.72,13.73,13.39,20.26,20.4c2.67,2.86,5.11,3.42,8.82,2.6
			C395.85,353.19,448.19,287.93,448.14,206.62z M77.56,179.71c1.19,0.94,2.58,1.82,3.71,2.95c13.79,13.74,27.54,27.51,41.29,41.28
			c1.04,1.04,2.18,2.04,2.97,3.26c2.04,3.12,1.76,6.24-0.87,8.85c-2.63,2.6-5.77,2.84-8.86,0.8c-1.34-0.88-2.45-2.11-3.59-3.26
			c-13.56-13.54-27.14-27.08-40.62-40.7c-1.08-1.09-1.49-2.83-2.21-4.27c-2.5,2.61-3.4,3.77-4.22,4.99
			c-20.61,30.64-17.49,71.54,8.63,98.04c44.61,45.25,89.67,90.06,134.77,134.82c14.18,14.07,31.82,21.07,51.77,21.68
			c27.95,0.86,49.54-11.86,67.17-32.44c4.11-4.8,3.95-11.09-0.57-15.68c-14.78-15.03-29.69-29.93-44.72-44.72
			c-4.34-4.28-10.28-4.57-14.96-1.08c-2.64,1.97-4.87,4.49-7.86,7.31c1.6,1.29,2.85,2.11,3.88,3.15
			c14.2,14.16,28.39,28.32,42.54,42.53c3.82,3.84,4.16,7.74,1.13,10.9c-2.91,3.04-7.21,2.76-10.94-0.73
			c-0.97-0.91-1.89-1.86-2.83-2.8c-13.76-13.76-27.53-27.52-41.27-41.29c-1.5-1.51-2.59-2.57-5.21-1.37
			c-14.58,6.71-27.34,4.27-38.76-7.09c-12.23-12.17-24.4-24.39-36.6-36.59c-12.3-12.3-24.68-24.53-36.88-36.93
			c-13.65-13.86-13.54-33.04,0.09-46.96c2.68-2.74,5.43-5.42,8.12-8.14c7.09-7.16,7.12-13.47,0.01-20.59
			c-12.6-12.63-25.55-24.93-37.75-37.93c-10.98-11.7-17.92-9.52-26.57,0.55C78.3,178.35,78.25,178.49,77.56,179.71z"/>
		<path class="st0" d="M228.76,188.85c7.36,0,13.55-0.04,19.74,0.01c5.01,0.05,8.08,2.59,8.27,6.69c0.19,4.17-3.11,7.36-8.14,7.41
			c-11.8,0.11-23.59,0.02-35.39,0.05c-3.47,0.01-6.57-0.79-8.06-4.25c-1.54-3.57-0.18-6.48,2.48-9.12
			c10.33-10.31,20.73-20.57,30.73-31.2c2.2-2.34,3.96-6.13,4-9.28c0.09-7.32-6.58-11.58-13.65-9.27c-6.03,1.97-9.39,6.2-10.06,12.65
			c-0.55,5.34-3.53,8.12-7.77,7.72c-4.3-0.41-6.54-3.62-6.27-8.99c0.81-16.11,16.4-28.72,32.19-25.75
			c9.29,1.75,15.63,7.37,18.57,16.4c3.1,9.51,1.08,18.12-5.68,25.4c-5.62,6.05-11.59,11.76-17.39,17.64
			C231.35,185.96,230.43,187.03,228.76,188.85z"/>
		<path class="st0" d="M355.45,140.14c-0.49,1.27-0.97,2.96-1.77,4.49c-23.38,44.58-46.77,89.15-70.2,133.71
			c-2.42,4.6-6.35,6.15-10.12,4.23c-3.79-1.92-4.84-6.08-2.46-10.63c23.44-44.71,46.93-89.4,70.38-134.11
			c1.81-3.45,4.3-5.64,8.47-4.76C353.25,133.82,354.81,136.29,355.45,140.14z"/>
		<path class="st0" d="M286.9,184.65c-9.18,0-17.58-0.07-25.97,0.04c-3.34,0.04-6.24-0.62-7.86-3.77c-1.69-3.3-0.56-6.18,1.57-8.97
			c10.84-14.16,21.64-28.35,32.37-42.59c2.34-3.1,5.05-5.14,9.01-3.87c3.99,1.28,4.98,4.6,4.97,8.44
			c-0.03,20.05-0.01,40.1-0.02,60.14c0,0.88-0.05,1.77-0.2,2.64c-0.67,3.9-3.14,5.97-6.97,6.16c-3.66,0.18-6.62-2.69-6.86-6.67
			C286.73,192.57,286.9,188.9,286.9,184.65z M286.62,154.74c-0.28-0.09-0.57-0.18-0.85-0.28c-3.88,5.12-7.76,10.25-11.91,15.73
			c4.8,0,8.69,0,12.77,0C286.62,164.84,286.62,159.79,286.62,154.74z"/>
		<path class="st0" d="M359.16,226.98c-9,0-17.32,0.01-25.64-0.01c-1.62,0-3.28,0.12-4.84-0.22c-3.77-0.83-5.88-3.32-5.9-7.2
			c-0.02-3.65,2.95-6.64,6.87-6.67c14.43-0.11,28.86-0.18,43.29,0.03c5.76,0.08,8.6,5.76,5.61,10.83
			c-2.24,3.79-4.87,7.36-7.34,11.02c-11.26,16.72-22.52,33.45-33.79,50.15c-0.9,1.34-1.78,2.77-2.97,3.81
			c-2.61,2.26-5.62,2.65-8.51,0.59c-2.96-2.12-4.02-5.06-2.52-8.52c0.63-1.47,1.62-2.79,2.52-4.13
			c10.18-15.14,20.38-30.27,30.57-45.41C357.29,230.09,358,228.86,359.16,226.98z"/>
	</g>
</g>
</svg>
