<?xml version="1.0" encoding="utf-8"?>
<!-- Generator: Adobe Illustrator 23.0.0, SVG Export Plug-In . SVG Version: 6.00 Build 0)  -->
<svg version="1.1" id="Layer_1" xmlns="http://www.w3.org/2000/svg" xmlns:xlink="http://www.w3.org/1999/xlink" x="0px" y="0px"
	 viewBox="0 0 500 500" style="enable-background:new 0 0 500 500;" xml:space="preserve">
<style type="text/css">
	.st0{fill:#6959F7;}
</style>
<path class="st0" d="M146.82,313.42c-0.44-5.73,3.45-7.34,8.12-8.69c12.62-3.62,25.18-7.46,37.68-11.48
	c1.83-0.59,4.1-2.41,4.59-4.11c2.37-8.28,4.31-16.69,6.1-25.11c0.24-1.15-0.82-3.05-1.85-3.93c-15.3-13.01-23.76-29.96-28.32-49.1
	c-0.64-2.67-1.69-4.01-4.27-4.98c-9.18-3.46-14.55-10.34-16.11-19.9c-0.74-4.55-0.97-9.29-0.6-13.88c0.65-8,4.08-14.75,11.24-19.48
	c-6.81-11.53-11.67-23.63-13.98-36.67c-2.36-13.28-2.61-26.4,2.17-39.34c8.71-23.59,26.13-35.63,50.52-38.38
	c3.57-0.4,6.12-1.49,8.71-4.03c14.67-14.43,32.95-18.95,52.68-16.9c18.75,1.95,36.18,8.53,51.38,19.95
	c22.84,17.16,30.83,40.86,29.02,68.54c-1.03,15.64-5.27,30.54-11.22,44.95c16.37,7.47,17.38,27.93,11.84,42.05
	c-2.61,6.64-7.87,10.66-14.32,13.47c-1.57,0.68-3.32,2.5-3.71,4.11c-4.7,19.51-13.36,36.64-28.79,49.97
	c-1.07,0.92-1.82,3.16-1.53,4.54c1.66,7.96,3.41,15.93,5.74,23.72c0.58,1.93,3.17,3.93,5.25,4.61c12.48,4.06,25.07,7.8,37.66,11.51
	c4.33,1.28,7.89,3,7.5,7.7c9.48,1.65,18.79,2.47,27.65,4.94c36.86,10.27,62.95,44.17,63.53,82.49c0.38,25.02,0.13,50.04,0.1,75.07
	c-0.01,5.86-2.26,7.98-8.27,7.98c-123.51,0.01-247.01,0.01-370.52,0c-6.43,0-8.44-2.09-8.44-8.78c-0.02-24.06-0.17-48.12,0.03-72.18
	c0.36-43.83,31.36-80.06,74.63-87.33C136.06,313.89,141.22,313.86,146.82,313.42z M206.34,89.14c-9.03,6.82-14.91,15.44-19.03,25.38
	c-5.27,12.73-6.37,26.05-5.49,39.62c0.44,6.83-1.05,8.52-7.6,9.46c-2.2,0.32-4.89,1.32-6.22,2.94c-7.66,9.34-1.78,25.98,9.94,28.24
	c4.31,0.83,6.03,3.04,7.04,7.17c2,8.2,3.78,16.64,7.23,24.27c16.51,36.52,60.3,48.81,93.41,26.45
	c17.23-11.63,25.04-29.11,28.48-48.78c0.98-5.58,2.88-8.67,8.7-9.45c5.81-0.78,9.71-4.47,10.64-10.26
	c0.65-4.06,0.62-8.34,0.15-12.44c-0.64-5.51-3.82-8.1-8.92-8.22c-7.25-0.18-8.58-1.7-9.23-9.06c-0.94-10.68-3.77-20.84-10.16-29.62
	c-6.75-9.29-15.5-14.09-27.59-12.97c-7.56,0.7-15.39,0.04-22.96-1.05C236.74,108.25,220.77,100.75,206.34,89.14z M284.51,469.29
	c49.02,0,97.29,0,145.69,0c0-23.84,0.82-47.27-0.21-70.63c-1.32-29.99-16.77-51.39-43.51-64.73c-1.91-0.95-3.99-1.56-6.97-2.7
	c6.49,13.63,9.45,27.01,10.63,40.77c0.31,3.59,1.28,5.46,4.83,6.95c11.58,4.85,17.57,17.28,14.86,29.63
	c-2.62,11.95-13.4,20.52-25.74,20.48c-12.07-0.04-22.9-8.68-25.42-20.28c-2.73-12.59,3.16-24.5,14.55-29.94
	c1.54-0.74,3.74-2.65,3.65-3.88c-1.17-15.63-4.19-30.77-13.2-44.11c-1.78-2.63-3.94-3.43-7.08-3.93c-8.23-1.3-13.41,1.46-15.64,9.56
	c-0.25,0.91-0.72,1.81-1.29,2.57c-6.63,8.84-6.71,16.65,2.86,23.73c3.94,2.91,3.64,6.98,0.98,11.12
	c-5.37,8.36-10.47,16.88-15.69,25.33C313.5,422.39,299.19,445.54,284.51,469.29z M70.03,469.37c48.11,0,96.05,0,144.69,0
	c-5.79-9.38-11.23-18.21-16.68-27.03c-14.07-22.76-28.09-45.55-42.28-68.23c-2.72-4.36-2.69-7.93,0.98-11.6
	c2.49-2.49,5-5.05,6.96-7.95c0.92-1.35,1.28-3.85,0.67-5.33c-2-4.87-5.15-9.33-6.77-14.3c-2.26-6.93-6.58-8.42-13.32-8.06
	c-6.14,0.33-11.12,1.49-15.03,6.66c-9.25,12.21-12.1,26.13-12.12,41.16c3.91,0.3,7.45,0.22,10.85,0.89
	c21.63,4.23,36.72,26.84,32.49,48.45c-0.88,4.47-3.77,5.75-11.14,4.94c-6.73-0.74-9.99-3-9.26-7.27c0.37-2.16,2.44-4.14,4.04-5.93
	c0.6-0.67,2.04-0.58,3.04-0.82c-0.02-11.13-7.75-21.78-18.25-25.41c-9.45-3.27-19.8-0.19-26.36,7.83
	c-7.22,8.83-8.17,20.96-2.25,30.7c0.66-0.19,1.39-0.43,2.13-0.61c4.61-1.11,7.86,0.33,9.02,3.96c1.19,3.76-0.48,6.87-4.76,8.66
	c-2.21,0.93-4.52,1.63-6.73,2.57c-3.55,1.51-6.28,0.28-8.43-2.51c-11.93-15.48-11.63-39.24,2.45-52.49
	c7.23-6.8,10.04-13.35,10.59-22.98c0.57-9.98,4.16-19.78,6.46-29.8c0.73,0.29,0.59,0.17,0.49,0.2c-0.45,0.15-0.92,0.29-1.33,0.52
	c-23.74,13.11-38.23,33-39.92,60.11c-1.48,23.81-0.47,47.77-0.54,71.66C69.69,467.98,69.89,468.58,70.03,469.37z M325.54,133.49
	c1.69-9.31,3.65-18.01,4.79-26.81c3.74-28.88-8.83-52.81-34.99-65.6c-8.27-4.04-17.17-7.42-26.17-9.21
	c-20.54-4.09-39.18-0.54-53.53,16.6c-1.5,1.79-5.08,2.52-7.72,2.57c-22.94,0.44-40.25,13.21-45.1,35.12
	c-1.75,7.91-1.3,16.55-0.48,24.73c0.76,7.62,3.33,15.05,5.11,22.56c0.49-0.1,0.97-0.2,1.46-0.3c0.1-0.75,0.18-1.5,0.3-2.25
	c3.29-21.63,12.45-39.94,30.3-53.26c6.67-4.97,8.3-4.79,14.62,0.42c18.39,15.16,39.58,22.36,63.29,20.54
	c15.62-1.2,27.55,4.68,36.83,16.44C318.46,120.35,321.43,126.65,325.54,133.49z M232.63,469.51c11.66,0,22.53,0,33.92,0
	c5.63-37.24,11.23-74.35,16.81-111.27c-22.73,0-44.9,0-67.54,0C221.41,395.26,227.01,432.27,232.63,469.51z M216.83,269.86
	c-0.39,0.58-0.64,0.82-0.73,1.11c-2.86,9.29-5.71,18.58-8.53,27.88c-0.23,0.75-0.42,1.59-0.31,2.34c2.07,14.08,4.2,28.15,6.3,42.13
	c1.35,0.3,2.27,0.62,3.21,0.71c21.76,2.02,43.53,1.93,65.31,0.13c3.63-0.3,3.87-2.58,4.25-5.11c1.82-12.2,3.68-24.39,5.38-36.6
	c0.22-1.61-0.18-3.42-0.69-5.01c-2.03-6.38-4.31-12.69-6.3-19.09c-0.83-2.66-1.19-5.46-1.84-8.58
	C260.47,279.47,238.54,279.33,216.83,269.86z M163.06,316.23c4.1,8.28,8.04,16.1,11.87,23.97c7.78,16,8.57,12.26-3.38,25.79
	c-0.11,0.12-0.2,0.26-0.32,0.36c-2.46,1.99-2.21,3.9-0.56,6.54c14.02,22.41,27.88,44.92,41.8,67.39c0.66,1.06,1.47,2.04,2.92,4.03
	c-7.07-46.67-13.93-92-20.84-137.61C183.73,309.98,173.68,313.02,163.06,316.23z M336.17,316.23c-10.78-3.25-20.92-6.32-31.54-9.52
	c-6.87,45.5-13.64,90.4-20.42,135.29c0.4,0.09,0.8,0.18,1.2,0.28c0.86-1.31,1.75-2.6,2.57-3.94c12.4-20.03,24.79-40.06,37.18-60.09
	c5.5-8.89,5.49-8.89-1.3-16.49c-6.63-7.41-6.62-7.41-2.18-16.33C326.44,335.88,331.17,326.31,336.17,316.23z M384.08,415.66
	c7.14,0.06,12.93-5.46,13.13-12.5c0.2-7.19-5.61-13.21-12.85-13.32c-7.21-0.11-13.15,5.8-13.1,13.03
	C371.32,409.95,376.97,415.59,384.08,415.66z"/>
</svg>
