<?xml version="1.0" encoding="utf-8"?>
<!-- Generator: Adobe Illustrator 23.0.0, SVG Export Plug-In . SVG Version: 6.00 Build 0)  -->
<svg version="1.1" id="Layer_1" xmlns="http://www.w3.org/2000/svg" xmlns:xlink="http://www.w3.org/1999/xlink" x="0px" y="0px"
	 viewBox="0 0 500 500" style="enable-background:new 0 0 500 500;" xml:space="preserve">
<style type="text/css">
	.st0{fill:#C12510;}
</style>
<g>
	<g>
		<path class="st0" d="M89.49,442c-5.5-2.45-6.99-6.79-6.42-12.52c3.06-30.94,25.09-52.59,56.03-54.88c0.6-0.04,1.2-0.12,2.18-0.22
			c0-1.58,0-3.05,0-4.52c0-38.87-0.03-77.74,0.02-116.62c0.03-23.21,5.01-45.17,17.79-64.83c18.16-27.95,44.54-42.66,77.25-46.32
			c23.9-2.67,46.94,0.75,68.2,12.46c29.33,16.15,45.83,41.62,51.84,74.08c1.6,8.67,2.18,17.63,2.23,26.46
			c0.23,38.25,0.1,76.49,0.1,114.74c0,1.47,0,2.94,0,3.38c8.38,2.33,16.59,3.48,23.78,6.83c21.73,10.12,32.98,27.78,34.5,51.67
			c0.32,4.99-2.07,8.28-6.5,10.28C303.49,442,196.49,442,89.49,442z M158.83,374.27c60.86,0,121.49,0,182.49,0c0-1.7,0-3.17,0-4.64
			c0-37.61,0.07-75.21-0.06-112.82c-0.02-6.98-0.31-14.03-1.35-20.91c-4.18-27.62-17.14-49.87-41.47-64.5
			c-18.2-10.94-38.23-14.29-59.13-12.09c-28.79,3.04-51.62,16.17-66.91,41.21c-9.98,16.35-13.69,34.42-13.72,53.35
			c-0.05,38.86-0.02,77.71-0.01,116.57C158.66,371.67,158.77,372.88,158.83,374.27z M398.37,424.51c-0.11-0.77-0.13-1.39-0.3-1.96
			c-4.6-15.39-14.57-25.59-30.2-29.14c-6.81-1.55-14.12-1.15-21.2-1.16c-63.6-0.08-127.2-0.04-190.79-0.05
			c-2.75,0-5.49-0.13-8.24-0.23c-8.99-0.33-17.74,0.61-25.73,5.15c-10.74,6.1-17.63,15.09-20.49,27.4
			C200.6,424.51,299.39,424.51,398.37,424.51z"/>
		<path class="st0" d="M252.24,58c4.97,2.21,6.63,6.13,6.57,11.42c-0.17,14.86-0.06,29.73-0.06,44.6c0,0.62,0.02,1.25-0.01,1.87
			c-0.27,5.74-3.94,9.64-8.94,9.52c-4.89-0.12-8.47-3.91-8.53-9.51c-0.12-10.74-0.04-21.49-0.04-32.23c0-4.75,0.17-9.5-0.05-14.24
			c-0.24-5.31,1.59-9.21,6.56-11.43C249.24,58,250.74,58,252.24,58z"/>
		<path class="st0" d="M57.99,247.75c2.23-4.95,6.11-6.63,11.43-6.56c15.36,0.18,30.73,0,46.09,0.1c7.41,0.05,11.82,6.05,9.11,12.16
			c-1.52,3.43-4.34,5.22-7.99,5.24c-16.61,0.08-33.23,0.06-49.84,0.02c-4.43-0.01-6.98-2.79-8.8-6.45
			C57.99,250.75,57.99,249.25,57.99,247.75z"/>
		<path class="st0" d="M408.61,241.26c8,0,16-0.14,23.99,0.04c7.24,0.16,11.46,6.66,8.39,12.61c-1.65,3.19-4.43,4.77-7.92,4.78
			c-16.5,0.06-32.99,0.12-49.49-0.02c-5.29-0.04-8.97-3.88-9-8.64c-0.04-4.88,3.78-8.65,9.29-8.74
			C392.11,241.16,400.36,241.26,408.61,241.26z"/>
		<path class="st0" d="M353.9,160.39c-5.09-0.21-7.83-1.91-9.31-5.34c-1.56-3.62-0.71-6.89,1.98-9.62
			c5.78-5.88,11.64-11.68,17.46-17.51c4.94-4.95,9.86-9.92,14.85-14.83c4.2-4.14,9.31-4.49,12.96-1.01
			c3.86,3.68,3.72,8.88-0.61,13.24c-10.55,10.65-21.13,21.27-31.85,31.75C357.63,158.78,355.08,159.69,353.9,160.39z"/>
		<path class="st0" d="M117.48,111.73c0.98,0.52,3.28,1.16,4.77,2.62c11.07,10.84,22.02,21.79,32.9,32.81
			c3.69,3.73,3.7,9.01,0.37,12.44c-3.49,3.59-8.75,3.64-12.69-0.24c-10.94-10.79-21.77-21.69-32.61-32.58
			c-2.81-2.83-3.7-6.22-2.01-9.95C109.76,113.44,112.52,111.76,117.48,111.73z"/>
		<path class="st0" d="M325.32,261.63c0,1.75,0.1,3.5-0.02,5.24c-0.34,4.84-3.78,8.32-8.32,8.51c-4.44,0.19-8.35-3.1-8.91-7.9
			c-0.55-4.7-0.46-9.48-1.12-14.16c-2.06-14.69-6.95-28.29-16.42-39.95c-4.8-5.91-10.56-10.52-17.77-13.27
			c-5.44-2.08-7.69-6.8-5.81-11.57c1.87-4.75,6.67-6.65,12.15-4.58c15.14,5.71,25.4,16.82,33.12,30.55
			C320.43,229.1,324.44,244.93,325.32,261.63z"/>
	</g>
</g>
</svg>
