<svg version="1.1" xmlns="http://www.w3.org/2000/svg" xmlns:xlink="http://www.w3.org/1999/xlink" x="0px" y="0px" viewBox="0 0 480.335 480.335" xml:space="preserve">
                  <g>
                    <path d="M341.311,0c-6.249,0.011-12.488,0.5-18.662,1.462c-14.488,2.469-28.449,7.393-41.28,14.56
                        c-25.694,13.956-56.706,13.956-82.4,0c-12.835-7.142-26.796-12.039-41.28-14.48C90.764-8.885,28.058,36.915,17.63,103.84
                        c-0.958,6.148-1.447,12.36-1.462,18.582v13.6c-0.142,22.285,5.925,44.169,17.52,63.2c30.684,49.633,50.202,105.349,57.2,163.28
                        l8.88,73.52c2.439,22.858,20.241,41.057,43.04,44c26.339,3.001,50.124-15.918,53.125-42.258c0.027-0.234,0.052-0.468,0.075-0.702
                        l16.72-156.16c1.639-15.155,15.253-26.111,30.408-24.472c12.894,1.394,23.078,11.578,24.472,24.472l16.72,155.92
                        c2.474,24.619,23.257,43.324,48,43.2h1.36c23.909,0.276,44.375-17.086,48-40.72l12.4-77.84c9.56-57.745,28.475-113.545,56-165.2
                        c9.255-17.588,14.087-37.166,14.08-57.04v-16.8C464.048,54.69,409.043-0.12,341.311,0z M448.169,139.222
                        c-0.046,17.675-4.442,35.066-12.8,50.64c-28.409,52.741-47.746,109.885-57.2,169.04l-12.48,77.92
                        c-2.393,15.777-16.043,27.38-32,27.2h-1.36c-16.523,0.079-30.389-12.435-32-28.88l-16.72-155.12
                        c-1.998-23.997-23.071-41.83-47.068-39.831c-20.83,1.735-37.499,18.008-39.732,38.791l-16.64,155.28
                        c-1.287,14.018-11.354,25.662-25.04,28.96c-17.185,4.123-34.459-6.466-38.582-23.652c-0.318-1.326-0.551-2.672-0.698-4.028
                        l-10.24-85.2c-7.763-56.732-27.566-111.148-58.08-159.6c-9.991-16.508-15.3-35.424-15.36-54.72v-13.6
                        C32.174,63.659,79.816,16.027,138.579,16.032c18.05,0.002,35.804,4.596,51.589,13.349c31.071,17.367,68.929,17.367,100,0v0.08
                        c51.39-28.498,116.153-9.94,144.651,41.45c8.741,15.762,13.334,33.486,13.349,51.51V139.222z"></path>
                    <path d="M308.089,65.062c-21.091,10.424-44.401,15.559-67.92,14.96c-23.572,0.625-46.941-4.51-68.08-14.96
                        c-3.845-2.158-8.711-0.798-10.88,3.04c-2.158,3.845-0.798,8.711,3.04,10.88c23.519,11.841,49.597,17.694,75.92,17.04
                        c26.323,0.654,52.401-5.199,75.92-17.04c3.844-2.209,5.169-7.116,2.96-10.96C316.84,64.178,311.933,62.853,308.089,65.062z"></path>
                  </g>
                </svg>