<svg enable-background="new 0 0 512 512" viewBox="0 0 512 512" xmlns="http://www.w3.org/2000/svg">
                  <g>
                    <path d="m466.257 66.381c-57.472-57.474-148.962-60.702-210.257-9.683-61.293-51.019-152.785-47.79-210.257 9.683-29.498 29.497-45.743 68.716-45.743 110.432s16.245 80.935 45.743 110.432l199.651 199.651c2.813 2.813 6.628 4.394 10.606 4.394s7.793-1.581 10.606-4.394l199.651-199.651c29.498-29.498 45.743-68.717 45.743-110.432s-16.245-80.935-45.743-110.432zm-399.301 21.212c24.598-24.597 56.908-36.896 89.219-36.896s64.622 12.299 89.219 36.896c5.857 5.858 15.355 5.858 21.213 0 49.196-49.194 129.243-49.195 178.438 0 23.83 23.832 36.955 55.518 36.955 89.22 0 22.931-6.082 44.926-17.472 64.151h-90l-55.797-83.695c-2.852-4.278-7.678-6.806-12.838-6.675-5.14.122-9.86 2.869-12.505 7.278l-80.491 134.151-46.665-46.665c-2.813-2.813-6.628-4.394-10.606-4.394h-108.154c-11.39-19.226-17.472-41.22-17.472-64.151 0-33.703 13.125-65.388 36.956-89.22zm189.044 367.483-184.112-184.112h77.524l55.856 55.856c2.83 2.83 6.652 4.394 10.605 4.394.609 0 1.222-.037 1.833-.112 4.584-.564 8.653-3.209 11.03-7.17l78.18-130.3 47.102 70.653c2.782 4.173 7.466 6.68 12.481 6.68h73.612z"></path>
                  </g>
                </svg>