<svg enable-background="new 0 0 512 512" viewBox="0 0 512 512" xmlns="http://www.w3.org/2000/svg">
                  <g>
                    <path d="m30.991 30h30v251.001l60.004 80.005v150.994h30v-150.994l60.004-80.005v-251.001h30v-30h-210.008zm60 231.001v-70.006h90.008v70.006zm75.008 30-30.004 40.005-30.004-40.005zm15-130.006h-90.008v-130.995h90.008z"></path>
                    <path d="m481.009 0h-210.008v30h30v251.001l60.004 80.005v150.994h30v-150.994l60.004-80.005v-251.001h30zm-150.008 261.001v-70.006h90.008v70.006zm75.008 30-30.004 40.005-30.004-40.005zm15-130.006h-90.008v-130.995h90.008z"></path>
                  </g>
                </svg>